<svg xmlns="http://www.w3.org/2000/svg" width="19" height="18" viewBox="0 0 19 18">
  <defs>
    <style>
      .cls-1 {
        fill: #fff;
        fill-rule: evenodd;
      }
    </style>
  </defs>
  <path id="Icon" class="cls-1" d="M575.851,7392.21l-3.257,7.31a1.625,1.625,0,0,1-1.48.98H560.8a1.663,1.663,0,0,1-1.629-1.69v-8.37l-1.932-2a0.845,0.845,0,0,1-.239-0.6,0.83,0.83,0,0,1,.814-0.84,0.772,0.772,0,0,1,.576.25l2.476,2.56h13.5A1.662,1.662,0,0,1,576,7391.5,1.771,1.771,0,0,1,575.851,7392.21Zm-15.051,6.6h10.314l2-4.5H560.8v4.5Zm13.571-7.31H560.8v1.12h13.071l0.5-1.12h0Zm-13.028,10.12a1.691,1.691,0,1,1-1.629,1.69A1.662,1.662,0,0,1,561.343,7401.62Zm8.686,0a1.691,1.691,0,1,1-1.629,1.69A1.662,1.662,0,0,1,570.029,7401.62Z" transform="translate(-557 -7387)"/>
</svg>
